<?xml version="1.0" encoding="UTF-8"?>
<!DOCTYPE svg PUBLIC "-//W3C//DTD SVG 1.1//EN" "http://www.w3.org/Graphics/SVG/1.1/DTD/svg11.dtd">
<!-- Creator: CorelDRAW 2020 (64 Bit) -->
<svg xmlns="http://www.w3.org/2000/svg" xml:space="preserve" width="3.88972in" height="1.71672in" version="1.1" style="shape-rendering:geometricPrecision; text-rendering:geometricPrecision; image-rendering:optimizeQuality; fill-rule:evenodd; clip-rule:evenodd"
viewBox="0 0 3885.51 1714.87"
 xmlns:xlink="http://www.w3.org/1999/xlink"
 xmlns:xodm="http://www.corel.com/coreldraw/odm/2003">
 <defs>
  <style type="text/css">
   <![CDATA[
    .fil0 {fill:black}
    .fil1 {fill:#00C800}
    .fnt0 {font-weight:bold;font-size:296.81px;font-family:'ITC Officina Sans'}
   ]]>
  </style>
 </defs>
 <g id="Camada_x0020_1">
  <metadata id="CorelCorpID_0Corel-Layer"/>
  <path class="fil0" d="M1956.66 591.16c0,-51.88 -1.52,-113.88 15.78,-158.14 6.23,-15.93 14.22,-27.89 26.85,-37.49 27.43,-20.86 82.53,-17.24 112.88,-3.11 4.8,2.23 9.85,6.67 14.39,7.72l0 295.58c0,10.16 1.57,19.73 -2.72,24.43 -18.1,19.78 -39.81,32.88 -76.7,32.88 -40.57,0 -61.31,-16.05 -75.13,-50.55 -10.81,-26.99 -15.36,-73.52 -15.36,-111.32zm284.99 -591.16l46.79 0c8.33,0 6.03,36.67 6.03,47.25l0 585.13c0,63.22 -1.57,111.91 16.21,169.78 9.7,31.57 7.21,37.55 -20.08,48.54 -10.6,4.27 -21.32,8.72 -32.18,13.06l-48.55 19.82c-8.82,3.26 -11.9,5.17 -19.97,5.17 -14.23,0 -27,-31.27 -31.75,-43.65 -2.35,-6.12 -3.93,-13.42 -6.45,-18.68 -3.83,1.02 -4.35,3.21 -7.34,5.73 -18.05,15.27 -32.45,25.23 -54.32,36.17 -31.77,15.9 -59.75,20.43 -98.2,20.43 -51.13,0 -98.88,-21.68 -130.97,-55.03 -11.56,-12 -26.68,-33.97 -33.91,-48.53 -17.46,-35.12 -25.3,-62.64 -32.03,-102.69 -2.19,-13 -6.19,-47.7 -6.21,-61.15 -0.01,-5.71 0.04,-11.44 0.06,-17.15 0.03,-6.57 -1.37,-9.2 -1.07,-15.03l1.03 -32.21c-0.06,-10.52 1.88,-21.83 2.02,-32.17 0.13,-9.28 2.06,-20.82 3.11,-30.07 2.16,-19.09 5.92,-39.29 10.37,-56.99 9.18,-36.52 20.87,-67.15 38.23,-95.48 35.38,-57.73 98.11,-96.94 170.49,-96.94 27.49,0 47.19,-0.61 73.27,8.17 24.6,8.28 22.22,9.39 40.34,18.98 0,-64.01 0,-128.02 0,-192.03 0,-47.33 -6.49,-56.55 31.58,-64.93 13.8,-3.04 26.33,-5.27 40.22,-8.05 7.18,-1.44 13.02,-2.42 20.08,-4.05 8.27,-1.9 15.79,-2.91 23.2,-3.41z"/>
  <path class="fil0" d="M164.07 573.07c0,-49.97 1.28,-133.66 34.92,-167.16 5.58,-5.55 9.87,-9.45 17.36,-12.8 30.64,-13.68 74.99,-3.43 101.11,15.5 3.02,2.19 5.12,3.72 8.05,6.02 3.89,3.05 7.45,5.25 7.45,7.63l0 309.66c0,5.69 -26.3,14.23 -32.37,15.89 -27.68,7.57 -76.1,9.5 -98.09,-11.09 -36.38,-34.07 -38.44,-110.7 -38.44,-163.64zm223.91 707.54l-51.99 0c-2.47,-10.63 -3.02,-15.72 -3.01,-29.15l0 -387.84c-26.38,13.96 -59.41,25.13 -99.53,25.13 -42.02,0 -72.99,-2.51 -108.93,-19.76 -36.84,-17.68 -62.38,-44.38 -82.15,-78.71 -6.66,-11.57 -11.82,-23.07 -17.05,-36.24 -34.92,-87.87 -32.52,-299.1 -0.13,-380.19 9.4,-23.53 17.56,-37.99 32.02,-57.45 15.55,-20.93 37.67,-39.44 61.95,-51.66 35.39,-17.81 62.53,-19.44 103.22,-19.44 38.94,0 80.63,12.94 110.14,32.62 11.04,7.36 22.53,17.95 26.59,20.67 6.01,-11.35 10.63,-21.97 18.23,-32.04 21.26,-28.15 31.67,-23.88 63.33,-13.33 9.63,3.21 17.75,6.26 27.64,9.55 9.78,3.26 18.13,6.04 27.9,9.3 16.29,5.43 42.67,11.24 38.78,33.42 -1.96,11.18 -17.72,29.79 -26.95,84.73 -7.24,43.1 -7.18,91.43 -7.18,141.62l0 690.45c0,54.21 -63.66,55.36 -112.9,58.31z"/>
  <path class="fil0" d="M633.58 295.58l0 420.25c0,39.39 12.95,95.79 40.46,123.42 4.44,4.46 4.67,5.94 9.96,10.15 12.17,9.69 16.47,15.83 36.76,24.57 61.96,26.72 142.23,15.2 199.36,-13.36 6.32,-3.16 13,-6.41 18.91,-10.24l29.45 -20.82c2.68,-2.17 1.39,-2.18 4.92,-3.12 1.08,2.25 2.18,7.07 3.14,9.93l10.63 28.58c1.38,3.17 2.9,5.29 4.74,8.33 15.4,25.46 38.62,13.71 61.54,6.07l68.12 -22.37c20.16,-6.71 23.75,-10.7 23.75,-27.53 0,-9.78 -6.54,-21.12 -8.85,-29.36 -4.27,-15.26 -7.64,-33.1 -9.16,-49.16 -0.53,-5.56 -0.67,-11.85 -1.52,-17.58 -4.54,-30.63 -2.59,-330.38 -2.59,-347.28 0,-18.66 1.07,-102.24 -0.05,-116.57 -0.35,-4.42 -1.55,-12.37 -3.24,-15.86 -6.27,-12.85 -20.72,-7.62 -31.31,-5.73 -17.85,3.19 -100.08,19.53 -112.55,23.18 -10.67,3.12 -17.25,7.2 -20.01,18.19 -2.08,8.29 -0.73,413.73 -0.73,425.55 -2.77,0.74 -6.65,3.68 -9.62,5.46 -33.9,20.32 -109.48,48.89 -133.84,0.26 -7.78,-15.55 -10.37,-37.95 -10.36,-61.02 0,-30.75 0.89,-383.97 -0.25,-392.85 -3.64,-28.28 -17.82,-21.97 -40.39,-17.76 -24.32,4.53 -81.35,15.83 -102.53,21.12 -14.02,3.5 -24.72,9.04 -24.72,25.55z"/>
  <path class="fil0" d="M2928.86 695.72c0,-21.13 0.03,-33.07 12.24,-51.09 20.41,-30.14 70.35,-41.4 109.41,-41.4l28.15 0 0 116.63c0,3.94 -25.69,23.61 -31.5,26.81 -18.88,10.41 -28.04,14.41 -51.95,14.41 -19.9,0 -35.82,-9.18 -46,-19.35 -10.95,-10.96 -20.35,-29 -20.35,-46zm-120.64 -389.08c0,14.51 2.9,18.4 8.42,34.81 4.27,12.72 18.05,60.04 24.56,67.93 11.7,14.2 33.96,2.9 50.17,-3.51l33.05 -11.19c34.61,-9.88 78.34,-19.99 116.64,-9.22 10.61,2.99 17.41,7.29 23.79,14.42 16.24,18.15 13.82,60.22 13.82,88.73 -71.06,0 -115.94,2.39 -181.85,24.25 -24.21,8.03 -55.83,26.6 -74.8,44.85l-14.25 15.91c-13.78,18.47 -12.77,17.85 -22.69,37.63 -3.22,6.43 -5.76,14.9 -7.92,22.25 -13.58,46.25 -10.46,104.91 6.92,148.68 26.07,65.65 89.82,106.57 162.87,106.57 38.07,0 67.79,-3.58 98.53,-19.1 12.08,-6.1 21.27,-11.51 31.89,-19.38 8.73,-6.48 26.82,-23.45 27.42,-23.86 3.5,7.29 6.12,20.31 14.08,36.19 15.75,31.42 22.22,29.06 44.09,20.97 22.42,-8.3 57.16,-23.39 80.73,-32.88 22.01,-8.86 24.98,-11.08 24.98,-27.3 0,-9.32 -18.18,-39.48 -24.71,-75.83 -5.49,-30.57 -5.45,-59.29 -5.45,-95.09 0,-67.02 0,-134.05 0,-201.07 0,-56.3 -8.81,-113.88 -48.01,-153.07 -17.86,-17.85 -37.19,-30.17 -61.94,-38.59 -79.49,-27.03 -207.63,-14.22 -284.6,16.29 -10.55,4.18 -35.75,16.54 -35.75,30.6z"/>
  <path class="fil0" d="M1380.58 689.69c0,-47.33 31.29,-71.45 74.14,-80.69 31.8,-6.86 43.98,-5.77 75.66,-5.77l0 51.11c2.81,7.26 5.8,15.52 8.99,24.92 53.35,157.03 117.51,177.92 117.51,177.92 0,0 -64.16,-20.89 -117.51,-177.92 -3.19,-9.4 -6.18,-17.65 -8.99,-24.92l0 65.51 118.3 150.03 0 0c5.1,-2.08 10.17,-4.16 15.42,-6.26 7.5,-3 43.07,-16.74 48.58,-20.79 17.67,-12.96 4.24,-32.66 -3.92,-52.02 -16.77,-39.82 -18.52,-87.44 -18.52,-134.3 0,-67.69 0,-135.39 0,-203.09 0,-55.99 -6.67,-115 -47.5,-155.58 -17.11,-17.01 -38.01,-29.98 -63.21,-38.32 -58.77,-19.47 -116.98,-15.75 -177.83,-9.18 -9.58,1.04 -19.07,2.9 -28.57,4.61 -25.08,4.51 -55.7,11.72 -77.97,21.56 -8.58,3.79 -13.95,6.35 -21.57,11.61 -5.45,3.77 -13.64,12.16 -13.64,20.54 0,11.04 14.39,48.13 17.98,59.44 3.22,10.13 6.02,19.05 9.28,28.92 10.35,31.32 32.55,16.85 56.06,9.04 41.46,-13.76 65,-25.01 116.75,-25.01 9.79,0 22.46,1.43 30.53,3.66 46.95,12.93 39.85,56.64 39.85,103.92 -51.11,0 -89.12,0.87 -137.32,11.48 -19.14,4.21 -40.77,10.94 -58.01,18.39l-48.67 28.75c-6.25,5.31 -10.41,9.3 -16.14,15.02 -60.21,60.16 -63.77,174.46 -21.43,245.12 23.43,39.1 63.19,66.64 107.88,76.11 38.77,8.2 79.79,7.54 116.65,-4.19l0 -0c-14.12,-40.64 -32.85,-118.92 -32.85,-118.92 -11.86,-1.36 -22.41,-4.95 -32.35,-12.8 -10.07,-7.94 -17.02,-16.45 -22.13,-29.14 -3.04,-7.53 -5.43,-18.65 -5.43,-28.75z"/>
  <path class="fil0" d="M3339.05 299.61l0 73.39c0,37.26 10.84,34.18 34.18,34.18l205.1 0 -98.84 131.4c-5.93,7.26 -10.84,14.19 -16.49,21.71l-140.76 185.99c-2.36,3.14 -7.32,8.4 -7.32,12.79l0 92.49c0,4.26 3.81,9.6 6.23,11.87 5.75,5.4 12.92,5.6 21.52,5.39 195.58,-129.63 374.75,-7.59 388.48,-0.17 12.65,0 21.28,-14.04 25.01,-23.25l28 -68.52c-138.09,-95.13 -248.03,-63.01 -265.37,-63.01 2.89,-10.82 218.23,-288.78 244.97,-324.35 2.3,-3.05 6.6,-8.01 6.6,-12.5l0 -86.46c0,-17.32 -12.65,-25.14 -26.14,-25.14l-384.05 0c-20.07,0 -21.11,19.57 -21.11,34.19z"/>
  <path class="fil0" d="M2395 305.64c0,16.64 11.75,39.82 17.67,60.75 8.42,29.75 7.16,39.9 10.91,65.5 1.62,11.08 1.58,24.53 1.58,36.62l0 344.84c0,12.98 -0.21,25.68 0.98,37.23 1.22,11.81 8.31,18.07 21.14,18.07l124.66 0c25.72,0 22.12,-23.19 22.12,-48.26l0 -355.91c-0.01,-18.03 -2.02,-12.56 10.3,-24.88 14.78,-14.78 44.66,-40.46 67.11,-40.46 60.79,0 62.18,40.6 84.07,-22.51l20.92 -56.49c1.61,-4.2 2.66,-7.62 4.3,-11.78 4.55,-11.53 7.33,-16.2 7.33,-28.86 0,-22.41 -44.42,-34.18 -69.37,-34.18 -26.11,0 -34.77,0.06 -59.44,8.92 -15.29,5.49 -37.66,18.7 -50.38,30.05 -14.41,12.85 -15.02,14.61 -27.18,27.12 -2.55,2.62 -10.85,11.8 -11.79,15.35l-2.01 0c-0.21,-9.34 -12.5,-39.11 -16.1,-47.24 -4.31,-9.74 -18.27,-34.2 -30.15,-34.2 -11.32,0 -26.04,6.84 -37.48,11.78 -11.01,4.75 -21.68,9.08 -32.75,13.5 -10.66,4.26 -21.21,8.7 -32.17,13.07 -9.73,3.88 -24.27,8.42 -24.27,21.98z"/>
  <path class="fil1" d="M3456.39 1417.22c-0,-8.24 24.89,-60.6 29.46,-71.62 12.25,-3.71 138.09,-15.21 142.68,-13.12 7.18,2.63 8.46,8.54 13.11,16.07 3.61,5.83 8.4,13.31 12.2,19.06 28.24,42.78 29.21,26.78 -2.71,106.46 -5.18,41.85 -21.29,41.69 -46.85,47.65 -27.56,6.43 -50.06,7.62 -76.2,7.46 -46.63,-0.28 -32.64,-0.69 -68.37,-77.77 -6.02,-12.98 -14.87,-26.09 -3.32,-34.2zm-1347.6 124.09c-24.47,-13.05 -92.8,-46.2 -103.2,-72.43 25.16,7.41 68.33,35.84 94.04,49.01 81.27,41.61 228.89,102.27 316.93,105.22 -11.13,-10.3 -154.02,-49.73 -174.53,-57.55 -84.43,-32.19 -159.63,-69.67 -237.64,-114.58 -88.18,-50.76 -257.15,-202.36 -319.46,-283.33 -72.41,-94.11 -141.24,-200.57 -182.68,-317.91 -11.69,-33.1 -60.84,-169.34 -52.93,-198.16 14.92,19.44 48.81,131.99 62.98,165.25 10.37,24.33 26.31,58.67 37.6,78.64 13.62,24.08 31.45,47.65 42.45,67.71 -4.03,-26.53 -64.13,-175.7 -78.03,-228.99 78.27,134.61 323.79,408.41 455.84,494.44l61 44.17c51.13,34.46 206.86,119.93 286.68,121.54 -74.12,-25.53 -142.43,-59.5 -208.84,-93.22 -46.73,-23.73 -157.28,-103 -180.27,-135.25 22.98,0.53 57.61,31.79 79.07,46.15 24.62,16.47 52.81,36.58 80.26,50.26 57.57,28.71 116.55,54.32 182.89,73.29 204,58.34 319.68,35.42 531.66,-3.98 53.67,-9.97 135.67,-36.02 183.97,-58.6 36.69,-17.14 71.14,-33.28 106.76,-52.54 15.93,-8.62 32.08,-19.96 46.11,-29.5 14.02,-9.54 38.09,-18.58 43.19,-31.71 -0.58,-0.17 -1.69,-0.75 -1.8,-0.15 -0.11,0.6 -1.38,-0.11 -1.79,-0.04 -9.85,1.45 -20.3,9.64 -28.48,13.78 -133.25,67.56 -259.72,109.7 -409.73,116.38 -39.18,1.74 -78.66,-1.62 -117.45,-5.12 -8.06,-0.72 -11.36,-0.39 -16.39,-5.65 16.34,-8.77 44.42,-4.04 63.9,-4.49 169.37,-3.9 338.46,-65.94 467.23,-166.72 28.49,-22.3 72.83,-55.98 92.32,-82.74 55.22,-75.87 108.78,-127.1 208.11,-156.61 72.05,-21.41 150.87,-15.46 220.58,10.24 45.95,16.93 90.12,46.01 123.59,81.07 105.48,110.54 131.73,258.3 69.74,399.25 -10.23,23.27 -31.44,55.62 -48.2,74.71 -44.5,50.66 -101.66,90.18 -169.89,111.48 -25.98,8.11 -49.28,8.99 -72.72,14.27l9.79 3.45c-69.4,31.49 -347.21,106.05 -416.23,118.49 -42.6,7.67 -88.81,16.42 -130.06,20.84 -105.57,11.32 -143.75,11.61 -247.22,13.17 -43.71,0.66 -198.69,-15 -223.56,-31.41l99.88 10.6c105.88,7.65 106.94,7.63 212.88,4.99 37.81,-0.94 72.94,-5.1 112.26,-8.64 100.04,-8.99 257.85,-41.94 359.24,-73.35 20.45,-6.33 40.42,-12.54 61.16,-18.18 10.39,-2.83 20.44,-6.21 30.87,-9.17 5.72,-1.62 11.59,-3.32 17.28,-4.99l13.99 -7.44c-19.47,0.87 -132.18,35.03 -161.57,42.6 -50.44,12.99 -104.65,24.14 -156.33,34.18 -47.67,9.26 -101.49,15.2 -149.57,20.81 -314.13,36.63 -613.09,11.81 -885.67,-133.54zm445.19 41.52c-149.45,20.87 -594.21,-214.43 -689.45,-338.06 -24.91,-24.47 -109.23,-125.5 -125.91,-156.09 150.53,201.01 583,457.04 815.36,494.15zm1298.06 -410.94c16.72,47.1 -9.93,137.91 -29.3,178.64 -22.11,46.49 -23.12,38.89 -69.59,36.79 -57.63,-2.6 -43.25,10.99 -74.88,-40.48 -27.01,-43.96 -25.72,-24.17 -11.7,-87.2 25.53,-114.76 5.03,-86 60.04,-112.57 21.61,-10.44 29.92,-19.81 48.55,-11.09 11.61,5.43 24.18,12.44 38.32,18.7 12.42,5.49 23.89,12.29 38.56,17.21zm-545.19 8.54c7.13,-5.88 8.19,-5.15 16.51,-3.06 93.15,23.35 66.93,-0.93 99.72,71.97 6.82,15.18 36.43,72.98 33.5,84.94 -0.7,2.88 -5.2,12.21 -6.85,16.1 -4.85,11.43 -16.24,41.29 -22.65,46.29 -3.82,18.76 -2.78,17.1 -25.32,18.85 -13.63,1.06 -27.2,3.26 -41.23,4 -14.17,0.74 -26.78,3.18 -40.89,4.61 -3.16,0.32 -17.87,1.75 -20.12,1.34 -13.63,-2.52 -47.9,-61.54 -55.12,-75.65 -8.96,-17.52 -29.98,-65.94 -27.11,-84.1 2.07,-7.37 89.54,-85.27 89.55,-85.28zm317.8 -275.77c12.69,-10.41 63.47,21.45 74.66,27.12 10.96,5.56 61.99,39.74 63.29,55.86l-10.99 86.88c-3.14,30.66 -2.44,27.65 -20.93,35.89 -73.74,32.89 -45.68,30.38 -86.63,8.78l-89.15 -51.33c-8.34,-5.12 -7.25,-6.56 -7.03,-18.08 0.31,-16.02 0.16,-30.4 0.34,-45.69 0.24,-18.74 -3.73,-29.48 10.03,-40.81 23.1,-19.05 43.38,-39.74 66.42,-58.62zm-350.46 599.36l-7.44 6.76c-21.23,13.17 -116.32,38.81 -137.72,43.68 -46.76,10.64 -91.29,19.4 -137.13,23.44 -82.45,7.28 -167.72,5.03 -248.93,-4.19 -87.63,-9.95 -199.75,-35.06 -282.39,-67.49 -30.02,-11.78 -76.28,-28.65 -103.84,-42.91 -8.33,-4.31 -16.56,-7.69 -25.35,-12.86 -8.7,-5.12 -17.51,-8.32 -23.48,-13.47l46.83 16.21c35.16,13.09 107.36,26.87 146.84,34.92 54.39,11.08 149.5,12.65 213.14,8.46 114.71,-7.56 257.63,-47.45 362.58,-100.47 17.61,-8.9 33.8,-19.91 51.66,-28.91 16.88,-8.51 33.77,-21.3 49.82,-28.44 -1.99,3.39 1.46,-0.83 -3.13,4.38 -0.36,0.41 -0.8,0.9 -1.2,1.3 -0.39,0.4 -0.86,0.82 -1.27,1.2 -10.98,10.16 -94.64,60.77 -104.22,65.63 -28.83,14.65 -109.69,49.44 -138.85,58.47 -50.71,15.69 -96.81,29.3 -147.43,39.1 -52.72,10.21 -86.54,8.94 -134.86,12.58 5.66,6.18 3.65,4.29 13.81,6.64 3.53,0.81 8.94,2.07 12.76,2.7 8.66,1.44 18.87,2.04 28.8,2.52 152.97,7.53 305.09,-11.07 452.08,-63.03 -16.01,25.83 -156.15,68.3 -183.22,76.34 -21.02,6.24 -43.86,7.28 -60.99,12.99 8.28,10.16 21.48,8.53 37.54,8.78 89.36,1.41 243.06,-38.65 325.58,-64.32zm105.69 -579.88l30.41 -14.77c7.51,7.31 58.91,35.16 71.77,43.44 41.7,26.85 35.15,11.51 34.97,69.31 -0.03,10.36 0.49,20.72 -0.02,31.73 -0.55,12.09 -4.29,14.84 -13.8,22.98 -108.9,93.2 -77.92,92.25 -143.32,77.14 -32.31,-7.46 -46.3,-5.37 -49.6,-23.71 -5.38,-3.52 -45.86,-90.86 -46.62,-99.42 4.63,-12.97 33.49,-44.64 48.56,-58.82 16.54,-15.55 45.16,-37.73 67.63,-47.89z"/>
  <text x="619.32" y="1272.57"  class="fil0 fnt0">.online</text>
 </g>
</svg>
